# xmcd
#
# Track frame offsets:
#	150
#	18418
#	33751
#	63979
#	81435
#	101542
#	119587
#	133689
#	150783
#	166033
#
# Disc length: 2404 seconds
#
# Revision: 0
# Processed by: cddbd v1.5.2PL0 Copyright (c) Steve Scherf et al.
# Submitted via: audiograbber 1.83.01
#
DISCID=7009620a
DTITLE=Ernst Jansz - Molenbeekstraat (Pasar Malam Besar 2006)
DYEAR=2006
DGENRE=Nederlands
TTITLE0=De tijd van appelbomen
TTITLE1=Huiswaarts
TTITLE2=De ballade van Nina bobo
TTITLE3=Molenbeekstraat
TTITLE4=Gebroken hart
TTITLE5=Alice
TTITLE6=Dichterbij
TTITLE7=Vaarwel
TTITLE8=Geen vergezicht
TTITLE9=Luna Luna mijn
EXTD=
EXTT0=
EXTT1=
EXTT2=
EXTT3=
EXTT4=
EXTT5=
EXTT6=
EXTT7=
EXTT8=
EXTT9=
PLAYORDER=
